<svg width="114" height="32" viewBox="0 0 114 32" fill="none" xmlns="http://www.w3.org/2000/svg">
<path d="M98.4374 32C96.4676 32 94.6866 31.6384 93.0946 30.9153C91.5025 30.1787 90.241 29.114 89.3101 27.7213C88.3926 26.3285 87.9339 24.621 87.9339 22.5989C87.9339 20.8579 88.2712 19.425 88.9458 18.3C89.6204 17.1751 90.5311 16.2846 91.6779 15.6283C92.8247 14.9721 94.1065 14.4766 95.5231 14.1418C96.9398 13.807 98.3834 13.5526 99.8541 13.3785C101.716 13.1642 103.227 12.9901 104.387 12.8562C105.548 12.7089 106.391 12.4745 106.917 12.1531C107.443 11.8317 107.706 11.3094 107.706 10.5863V10.4457C107.706 8.69133 107.207 7.33204 106.209 6.36782C105.224 5.4036 103.753 4.92149 101.797 4.92149C99.7596 4.92149 98.1541 5.37012 96.9803 6.26738C95.82 7.15125 95.0172 8.13556 94.572 9.22031L88.8851 7.93468C89.5597 6.05981 90.5446 4.54652 91.8398 3.39481C93.1486 2.22971 94.6529 1.38602 96.3529 0.863732C98.0529 0.328056 99.8406 0.060218 101.716 0.060218C102.957 0.060218 104.273 0.207529 105.662 0.502151C107.066 0.783382 108.374 1.30567 109.589 2.06901C110.816 2.83235 111.821 3.92379 112.604 5.34334C113.387 6.74949 113.778 8.57749 113.778 10.8273V31.317H107.868V27.0985H107.625C107.234 27.8753 106.647 28.6386 105.865 29.3886C105.082 30.1385 104.077 30.7612 102.849 31.2567C101.622 31.7522 100.151 32 98.4374 32ZM99.7529 27.1789C101.426 27.1789 102.856 26.8508 104.043 26.1946C105.244 25.5384 106.155 24.6813 106.775 23.6233C107.41 22.552 107.727 21.407 107.727 20.1883V16.2109C107.511 16.4252 107.093 16.626 106.472 16.8135C105.865 16.9876 105.17 17.1416 104.387 17.2756C103.605 17.3961 102.843 17.5099 102.1 17.6171C101.358 17.7108 100.738 17.7911 100.239 17.8581C99.0648 18.0054 97.9922 18.2532 97.0208 18.6014C96.0628 18.9496 95.2938 19.4517 94.7136 20.108C94.147 20.7508 93.8636 21.6079 93.8636 22.6792C93.8636 24.1657 94.4168 25.2906 95.5231 26.054C96.6295 26.8039 98.0394 27.1789 99.7529 27.1789Z" fill="#F9F8F6"/>
<path d="M67.7971 31.3171V0.462023H73.6459V5.36347H73.9697C74.5364 3.70287 75.5348 2.39716 76.9649 1.44633C78.4086 0.48211 80.0411 0 81.8625 0C82.2403 0 82.6855 0.0133934 83.1982 0.0401781C83.7244 0.0669606 84.1359 0.100439 84.4327 0.140616V5.88576C84.1899 5.8188 83.7581 5.74514 83.1375 5.66479C82.5169 5.57105 81.8962 5.52418 81.2756 5.52418C79.8455 5.52418 78.5705 5.8255 77.4506 6.42813C76.3443 7.01738 75.4673 7.84098 74.8197 8.89895C74.1721 9.94352 73.8483 11.1354 73.8483 12.4746V31.3171H67.7971Z" fill="#F9F8F6"/>
<path d="M53.5952 18.5211V0.462035H59.6665V31.3171H53.7166V25.9737H53.3928C52.6777 27.6209 51.5309 28.9936 49.9523 30.0917C48.3872 31.1765 46.4377 31.7188 44.1036 31.7188C42.1067 31.7188 40.3393 31.2836 38.8012 30.4131C37.2766 29.5292 36.0758 28.2235 35.1989 26.496C34.3354 24.7684 33.9036 22.6324 33.9036 20.0879V0.462035H39.9548V19.3648C39.9548 21.4673 40.5417 23.1413 41.7155 24.3867C42.8893 25.6322 44.4139 26.2549 46.2893 26.2549C47.4226 26.2549 48.5492 25.9737 49.669 25.4112C50.8023 24.8488 51.74 23.9984 52.4821 22.8601C53.2376 21.7217 53.6086 20.2754 53.5952 18.5211Z" fill="#F9F8F6"/>
<path d="M10.5035 32C8.53367 32 6.75273 31.6384 5.16068 30.9153C3.56863 30.1787 2.30713 29.114 1.37618 27.7213C0.458727 26.3285 0 24.621 0 22.5989C0 20.8579 0.337299 19.425 1.0119 18.3C1.6865 17.1751 2.5972 16.2846 3.74402 15.6283C4.89084 14.9721 6.17258 14.4766 7.58923 14.1418C9.00589 13.807 10.4495 13.5526 11.9202 13.3785C13.782 13.1642 15.2931 12.9901 16.4535 12.8562C17.6138 12.7089 18.457 12.4745 18.9832 12.1531C19.5094 11.8317 19.7725 11.3094 19.7725 10.5863V10.4457C19.7725 8.69133 19.2733 7.33204 18.2749 6.36782C17.29 5.4036 15.8193 4.92149 13.863 4.92149C11.8257 4.92149 10.2202 5.37012 9.04637 6.26738C7.88606 7.15125 7.08328 8.13556 6.63805 9.22031L0.951184 7.93468C1.62578 6.05981 2.6107 4.54652 3.90592 3.39481C5.21465 2.22971 6.719 1.38602 8.41899 0.863732C10.119 0.328056 11.9067 0.060218 13.782 0.060218C15.0233 0.060218 16.3388 0.207529 17.7284 0.502151C19.1316 0.783382 20.4403 1.30567 21.6546 2.06901C22.8824 2.83235 23.8875 3.92379 24.6701 5.34334C25.4526 6.74949 25.8439 8.57749 25.8439 10.8273V31.317H19.9344V27.0985H19.6915C19.3003 27.8753 18.7134 28.6386 17.9308 29.3886C17.1483 30.1385 16.1431 30.7612 14.9154 31.2567C13.6876 31.7522 12.217 32 10.5035 32ZM11.819 27.1789C13.492 27.1789 14.9221 26.8508 16.1094 26.1946C17.3102 25.5384 18.2209 24.6813 18.8415 23.6233C19.4757 22.552 19.7927 21.407 19.7927 20.1883V16.2109C19.5768 16.4252 19.1586 16.626 18.538 16.8135C17.9308 16.9876 17.236 17.1416 16.4535 17.2756C15.6709 17.3961 14.9086 17.5099 14.1666 17.6171C13.4245 17.7108 12.8039 17.7911 12.3047 17.8581C11.1309 18.0054 10.0583 18.2532 9.08684 18.6014C8.12891 18.9496 7.35987 19.4517 6.77971 20.108C6.21305 20.7508 5.92972 21.6079 5.92972 22.6792C5.92972 24.1657 6.48289 25.2906 7.58923 26.054C8.69557 26.8039 10.1055 27.1789 11.819 27.1789Z" fill="#F9F8F6"/>
</svg>
